<svg width="68" height="60" viewBox="0 0 68 60" fill="none" xmlns="http://www.w3.org/2000/svg">
<path d="M4.93119 60H55.8876C59.504 60 62.4628 57.0412 62.4628 53.4248V45.9456C65.257 45.5345 67.3943 43.1514 67.3943 40.2745V30.4121C67.3943 27.5352 65.2576 25.1521 62.4628 24.741V17.2618C62.4628 13.6454 59.504 10.6866 55.8876 10.6866H49.066L47.6689 1.40041C47.5869 0.907376 47.3404 0.49632 46.9294 0.249816C46.5183 0.00329651 46.0253 -0.078686 45.6142 0.0852786L8.21878 10.6872H4.93156C2.21936 10.6872 0 12.9064 0 15.6188V55.0689C0 57.7811 2.21922 59.9999 4.93156 59.9999L4.93119 60ZM64.1064 30.4124V40.2748C64.1064 41.6719 63.0378 42.7406 61.6406 42.7406H49.3124C46.6002 42.7406 44.3809 40.5214 44.3809 37.809V32.8775C44.3809 30.1653 46.6001 27.9459 49.3124 27.9459H61.6406C63.0383 27.9465 64.1064 29.0152 64.1064 30.4124ZM44.7101 3.70138L45.7787 10.6876L20.2183 10.6871L44.7101 3.70138ZM3.28744 15.6185C3.28744 14.7144 4.02699 13.9749 4.93105 13.9749H55.8875C57.6956 13.9749 59.1747 15.4539 59.1747 17.2621V24.6587L49.3123 24.6592C44.7918 24.6592 41.0935 28.3575 41.0935 32.878V37.8096C41.0935 42.3301 44.7918 46.0284 49.3123 46.0284H59.1747V53.425C59.1747 55.2331 57.6956 56.7122 55.8875 56.7122H4.93105C4.02695 56.7122 3.28744 55.9726 3.28744 55.0686V15.6185Z" fill="#00ABE4"/>
<circle cx="50.8538" cy="35.2229" r="2.20146" fill="#00ABE4"/>
</svg>
