<svg width="55" height="60" viewBox="0 0 55 60" fill="none" xmlns="http://www.w3.org/2000/svg">
<path fill-rule="evenodd" clip-rule="evenodd" d="M13.1848 28.2634C15.5972 29.8403 18.4038 30.7091 21.285 30.7707C24.1666 30.8326 27.0077 30.0845 29.4855 28.6123L31.842 30.155C32.3954 30.5209 33.0692 30.6566 33.7211 30.5345H33.7822L36.0225 30.0691L36.4145 31.9423C36.572 32.6955 37.0221 33.3557 37.6659 33.7766C38.3102 34.198 39.095 34.3462 39.8482 34.1886L41.7214 33.7967L42.1804 36.0191C42.3196 36.6886 42.718 37.2761 43.2885 37.6531L45.1919 38.8772L45.1923 38.8777C45.5847 39.136 46.0442 39.2743 46.5143 39.2752C46.6808 39.276 46.8469 39.2594 47.0105 39.2265L53.2844 37.9533C53.8386 37.8372 54.3241 37.5054 54.6341 37.0314C54.9441 36.5571 55.053 35.9794 54.9373 35.4252L53.6333 29.1512C53.5022 28.5218 53.1256 27.971 52.5867 27.6209L36.8794 17.3248C37.3427 13.6745 36.4823 9.97908 34.4546 6.90823C32.4264 3.83781 29.3658 1.59539 25.8266 0.588128C22.2873 -0.419546 18.5043 -0.125348 15.1632 1.41689C11.8225 2.95909 9.14486 5.64738 7.61588 8.99445C6.08691 12.3415 5.80806 16.1258 6.82939 19.6608C7.85116 23.1962 10.1056 26.2483 13.1846 28.2635L13.1848 28.2634ZM11.2993 8.63853C13.3996 5.41869 16.882 3.36405 20.7158 3.08182C24.5497 2.80002 28.2951 4.32344 30.8437 7.20137C33.3923 10.0793 34.4522 13.9813 33.7088 17.7528C33.5892 18.363 33.8505 18.9847 34.3702 19.3259L50.6951 30.0379L51.76 35.1368L46.661 36.2017L45.1431 35.2103L44.4881 32.0579C44.3852 31.5506 44.0829 31.1061 43.6491 30.8239C43.2149 30.5417 42.6858 30.446 42.1802 30.5583L39.3584 31.1706L38.7461 28.3487H38.7465C38.6419 27.8475 38.3426 27.4085 37.9143 27.1285C37.4861 26.8484 36.9643 26.7502 36.4635 26.8552L33.3478 27.4854L30.33 25.5081V25.5085C29.8138 25.1613 29.1383 25.1613 28.6221 25.5085C25.4625 27.6886 21.4672 28.2723 17.8153 27.0874C14.1638 25.9021 11.2727 23.0836 9.99517 19.4633C8.71803 15.8429 9.20014 11.8345 11.2992 8.6202L11.2993 8.63853ZM12.9939 41.8404L13.9426 43.9647C14.2078 44.5561 14.6966 45.0185 15.3017 45.2499L16.9789 45.8622L16.4708 47.2581C16.2121 47.9331 16.2326 48.6838 16.5276 49.3439C16.8226 50.004 17.3683 50.5198 18.0442 50.7776L19.4093 51.2981L18.797 52.9693V52.9689C18.5643 53.5752 18.5818 54.249 18.8461 54.8421L19.6539 56.6785C19.8998 57.2408 20.3605 57.6815 20.9331 57.9026L26.1299 59.8919C26.6354 60.0627 27.1871 60.0302 27.6691 59.8018C28.1512 59.5734 28.5252 59.1669 28.7131 58.6678L30.7088 53.471C30.9249 52.8997 30.9074 52.2661 30.6597 51.708L24.0736 36.8948C24.4382 36.4529 24.7755 35.9887 25.0834 35.505C25.5313 34.7885 25.3135 33.8445 24.5966 33.3965C23.8801 32.9486 22.9361 33.1664 22.4878 33.8829C22.1065 34.4939 21.6633 35.0639 21.1658 35.5848C20.7346 36.034 20.6184 36.6992 20.872 37.2679L27.7519 52.644L26.2276 56.6106L22.2614 55.0927L21.6859 53.807L22.659 51.267H22.6594C22.8443 50.7986 22.8336 50.276 22.6299 49.8157C22.4263 49.3554 22.0467 48.9963 21.5757 48.8183L19.4212 47.9921L20.2538 45.911C20.4387 45.4426 20.428 44.92 20.2243 44.4597C20.0207 43.9995 19.6411 43.6404 19.1701 43.4623L16.6301 42.4828L15.4059 39.6917C15.1557 39.1191 14.5793 38.7592 13.9551 38.7856C10.2315 38.9146 6.71738 37.0627 4.71783 33.9185C2.71873 30.7742 2.53258 26.8069 4.22851 23.4892C4.61237 22.7317 4.30964 21.8068 3.55218 21.4231C2.79515 21.0396 1.86985 21.3424 1.48651 22.0998C-0.616767 26.2163 -0.480571 31.1201 1.84731 35.1139C4.17564 39.1074 8.37585 41.6424 12.9944 41.8405L12.9939 41.8404ZM18.3078 17.9934C17.3787 17.9947 16.4697 17.7223 15.6943 17.2099L15.7061 17.21C14.468 16.3983 13.6776 15.0572 13.5679 13.5807C13.4578 12.1043 14.0411 10.6606 15.1456 9.67473C16.2498 8.68837 17.7502 8.2725 19.2049 8.54832C20.6591 8.8241 21.903 9.7613 22.5695 11.0832C23.236 12.4052 23.2497 13.9619 22.6066 15.2954C21.9636 16.6292 20.7369 17.5878 19.2873 17.8892C18.965 17.9575 18.637 17.9921 18.3078 17.9934ZM17.959 11.5784C17.5158 11.6694 17.1281 11.9337 16.8817 12.3129L16.8816 12.3435C16.6212 12.8491 16.6301 13.4516 16.9064 13.9486C17.1822 14.446 17.6882 14.7727 18.2552 14.8188C18.8223 14.8653 19.3748 14.6258 19.7279 14.18C19.9542 13.8363 20.0486 13.4221 19.9935 13.0144C19.938 12.6066 19.7369 12.2326 19.4269 11.9619C19.1169 11.6912 18.7194 11.5417 18.3078 11.5417C18.1904 11.5421 18.0738 11.5545 17.959 11.5784Z" fill="#00ABE4"/>
</svg>
