<svg width="24" height="24" viewBox="0 0 24 24" fill="none" xmlns="http://www.w3.org/2000/svg">
<g id="vuesax/outline/setting-4">
<g id="setting-4">
<path id="Vector" d="M21.0539 6.5H15.4539C15.0712 6.5 14.7539 6.27333 14.7539 6C14.7539 5.72667 15.0712 5.5 15.4539 5.5H21.0539C21.4366 5.5 21.7539 5.72667 21.7539 6C21.7539 6.27333 21.4366 6.5 21.0539 6.5Z" fill="#01AEE5"/>
<path id="Vector_2" d="M6.07209 6.5H2.43572C2.063 6.5 1.75391 6.27333 1.75391 6C1.75391 5.72667 2.063 5.5 2.43572 5.5H6.07209C6.44482 5.5 6.75391 5.72667 6.75391 6C6.75391 6.27333 6.44482 6.5 6.07209 6.5Z" fill="#01AEE5"/>
<path id="Vector_3" d="M9.75391 10.5C7.55155 10.5 5.75391 8.70235 5.75391 6.5C5.75391 4.29765 7.55155 2.5 9.75391 2.5C11.9563 2.5 13.7539 4.29765 13.7539 6.5C13.7539 8.70235 11.9563 10.5 9.75391 10.5ZM9.75391 3.91176C8.32332 3.91176 7.16567 5.06941 7.16567 6.5C7.16567 7.93059 8.32332 9.08824 9.75391 9.08824C11.1845 9.08824 12.3421 7.93059 12.3421 6.5C12.3421 5.06941 11.1845 3.91176 9.75391 3.91176Z" fill="#01AEE5"/>
<path id="Vector_4" d="M21.0721 17.5H17.4357C17.063 17.5 16.7539 17.2733 16.7539 17C16.7539 16.7267 17.063 16.5 17.4357 16.5H21.0721C21.4448 16.5 21.7539 16.7267 21.7539 17C21.7539 17.2733 21.4448 17.5 21.0721 17.5Z" fill="#01AEE5"/>
<path id="Vector_5" d="M8.05391 17.5H2.45391C2.07124 17.5 1.75391 17.2733 1.75391 17C1.75391 16.7267 2.07124 16.5 2.45391 16.5H8.05391C8.43657 16.5 8.75391 16.7267 8.75391 17C8.75391 17.2733 8.43657 17.5 8.05391 17.5Z" fill="#01AEE5"/>
<path id="Vector_6" d="M13.7539 20.5C11.5516 20.5 9.75391 18.7024 9.75391 16.5C9.75391 14.2976 11.5516 12.5 13.7539 12.5C15.9563 12.5 17.7539 14.2976 17.7539 16.5C17.7539 18.7024 15.9563 20.5 13.7539 20.5ZM13.7539 13.9118C12.3233 13.9118 11.1657 15.0694 11.1657 16.5C11.1657 17.9306 12.3233 19.0882 13.7539 19.0882C15.1845 19.0882 16.3421 17.9306 16.3421 16.5C16.3421 15.0694 15.1845 13.9118 13.7539 13.9118Z" fill="#01AEE5"/>
</g>
</g>
</svg>
