<svg width="25" height="24" viewBox="0 0 25 24" fill="none" xmlns="http://www.w3.org/2000/svg">
          <g id="Group">
            <path id="Path" fill-rule="evenodd" clip-rule="evenodd" d="M17.7764 5.52225V5.52225C20.6906 8.43647 20.6906 13.1613 17.7764 16.0756L13.7432 20.1088C13.0565 20.7955 11.943 20.7955 11.2563 20.1088L7.22311 16.0756C4.30889 13.1613 4.30889 8.43647 7.22311 5.52225V5.52225C10.1373 2.60804 14.8622 2.60804 17.7764 5.52225Z" stroke="#5CCBEE" stroke-width="1.5" stroke-linecap="round" stroke-linejoin="round"></path>
            <path id="Path_2" fill-rule="evenodd" clip-rule="evenodd" d="M17.7764 5.52225V5.52225C20.6906 8.43647 20.6906 13.1613 17.7764 16.0756L13.7432 20.1088C13.0565 20.7955 11.943 20.7955 11.2563 20.1088L7.22311 16.0756C4.30889 13.1613 4.30889 8.43647 7.22311 5.52225V5.52225C10.1373 2.60804 14.8622 2.60804 17.7764 5.52225Z" stroke="#5CCBEE" stroke-width="1.5" stroke-linecap="round" stroke-linejoin="round"></path>
            <circle id="Oval" cx="12.5" cy="10.7992" r="2.56043" stroke="#5CCBEE" stroke-width="1.5" stroke-linecap="round" stroke-linejoin="round"></circle>
          </g>
        </svg>