<svg xmlns="http://www.w3.org/2000/svg" width="20" height="20" viewBox="0 0 20 20" fill="none">
<path fill-rule="evenodd" clip-rule="evenodd" d="M14.7147 4.45915V4.45915C17.3182 7.07494 17.3182 11.303 14.7147 13.9188V13.9188L11.9548 16.6878C10.8806 17.7671 9.13492 17.7712 8.05565 16.697L8.04648 16.6878L5.28659 13.9188C2.68314 11.303 2.68311 7.07498 5.28654 4.45915V4.45915C7.87778 1.85565 12.0889 1.84571 14.6924 4.43694L14.7147 4.45915H14.7147Z" stroke="#333333" stroke-linecap="round" stroke-linejoin="round"/>
<path fill-rule="evenodd" clip-rule="evenodd" d="M12.5 8.85762V10.8337C12.5 11.2939 12.1269 11.667 11.6667 11.667H8.33333C7.8731 11.667 7.5 11.2939 7.5 10.8337V8.8096C7.5 8.55644 7.61508 8.31701 7.81277 8.15887L9.44943 6.84959C9.75378 6.60613 10.1862 6.60613 10.4906 6.84959L12.1872 8.20688C12.3849 8.36503 12.5 8.60446 12.5 8.85762Z" stroke="#333333" stroke-linecap="round" stroke-linejoin="round"/>
</svg>