<svg xmlns="http://www.w3.org/2000/svg" viewBox="0 0 733.35 180.45"><path d="M392.23,181H392L378.61,127H362.46l-13.63,53.41h-.22L336.19,127H318.94l20.77,78.46h17.47L370.26,152h.22l13.29,53.4h17.15L422,127H405.1Zm82.42-27.53a15.28,15.28,0,0,0-6.32-4.72,26.4,26.4,0,0,0-10.27-1.7,20.49,20.49,0,0,0-9,2.25,18.05,18.05,0,0,0-7.59,7.2h-.32V127H425.53v78.46h15.61V175.65c0-5.79.94-10,2.85-12.48s5-3.79,9.24-3.79q5.59,0,7.79,3.46c1.47,2.31,2.21,5.82,2.21,10.5v32.08h15.6V170.48a46,46,0,0,0-.93-9.61A18.4,18.4,0,0,0,474.65,153.5Zm64.28,39.29V163.23a13.61,13.61,0,0,0-2.31-8.3,15.67,15.67,0,0,0-5.93-4.89,26.46,26.46,0,0,0-8-2.36,64.11,64.11,0,0,0-8.68-.61,47.93,47.93,0,0,0-9.39.94,26.58,26.58,0,0,0-8.41,3.13A18.7,18.7,0,0,0,490,157a18.07,18.07,0,0,0-2.75,9.13h15.6q.44-4.62,3.08-6.6a11.82,11.82,0,0,1,7.25-2,25.19,25.19,0,0,1,3.9.28,8.79,8.79,0,0,1,3.19,1.09,6.19,6.19,0,0,1,2.2,2.31,8.43,8.43,0,0,1,.82,4,4.25,4.25,0,0,1-1.43,3.69,10.55,10.55,0,0,1-4.18,1.92,41.37,41.37,0,0,1-6,1q-3.4.33-6.92.88a67.16,67.16,0,0,0-7,1.48,19.66,19.66,0,0,0-6.15,2.8,14.29,14.29,0,0,0-4.4,5,16.59,16.59,0,0,0-1.7,8,17.61,17.61,0,0,0,1.49,7.58,14.15,14.15,0,0,0,4.11,5.28,17.23,17.23,0,0,0,6.16,3.07,27.84,27.84,0,0,0,7.58,1,35.38,35.38,0,0,0,10.32-1.53,20.45,20.45,0,0,0,8.8-5.39,23.73,23.73,0,0,0,.38,2.81,22,22,0,0,0,.72,2.68h15.82a13.4,13.4,0,0,1-1.54-5.27A59.79,59.79,0,0,1,538.93,192.79Zm-15.6-9.35a28.83,28.83,0,0,1-.28,3.53,11.63,11.63,0,0,1-1.48,4.33,10.28,10.28,0,0,1-3.73,3.68,13.78,13.78,0,0,1-7.15,1.55,19.57,19.57,0,0,1-3.62-.34A8.58,8.58,0,0,1,504,195a5.89,5.89,0,0,1-2.09-2.25,7.39,7.39,0,0,1-.77-3.52,7.61,7.61,0,0,1,.77-3.62,7,7,0,0,1,2-2.36,10.15,10.15,0,0,1,3-1.49,27.84,27.84,0,0,1,3.46-.88c1.25-.22,2.5-.4,3.74-.55s2.44-.33,3.57-.55a25.14,25.14,0,0,0,3.19-.82,6.92,6.92,0,0,0,2.47-1.37v5.81Zm44.72-51.86h-15.6v17H543v10.44h9.45v33.51a14.57,14.57,0,0,0,1.43,6.93,10.14,10.14,0,0,0,3.9,4.07,16.25,16.25,0,0,0,5.71,1.92,45.61,45.61,0,0,0,6.87.49c1.55,0,3.12,0,4.73-.11a34.45,34.45,0,0,0,4.39-.44V193.34a20.2,20.2,0,0,1-2.3.33c-.81.07-1.65.11-2.53.11q-4,0-5.28-1.32t-1.31-5.28V159.05h11.43V148.61H568.06v-17Zm64.51,49a14.28,14.28,0,0,0-4.07-4.51,22,22,0,0,0-5.77-2.92q-3.24-1.08-6.65-1.86c-2.2-.51-4.35-1-6.48-1.43a50.52,50.52,0,0,1-5.66-1.48,11.88,11.88,0,0,1-4-2.15,4.72,4.72,0,0,1-.66-6.21,5.86,5.86,0,0,1,2.15-1.59,9.68,9.68,0,0,1,2.79-.71,27.09,27.09,0,0,1,2.86-.17,15.76,15.76,0,0,1,7.26,1.59c2,1.07,3.19,3.1,3.4,6.1h14.84a18.64,18.64,0,0,0-2.7-8.73,17.61,17.61,0,0,0-5.65-5.55,23.86,23.86,0,0,0-7.75-3,44.76,44.76,0,0,0-9-.87,48.63,48.63,0,0,0-9,.82,24.5,24.5,0,0,0-7.91,2.86,15.76,15.76,0,0,0-5.67,5.54,17.11,17.11,0,0,0-2.14,9,12,12,0,0,0,1.54,6.31,13.31,13.31,0,0,0,4.06,4.29,22.82,22.82,0,0,0,5.77,2.75c2.16.7,4.38,1.3,6.65,1.82a91.76,91.76,0,0,1,13,3.51c3.12,1.17,4.67,2.93,4.67,5.27a5.84,5.84,0,0,1-1,3.46,7.48,7.48,0,0,1-2.48,2.2,11.94,11.94,0,0,1-3.29,1.21,16.55,16.55,0,0,1-3.47.39,18.06,18.06,0,0,1-4.44-.55,11.56,11.56,0,0,1-3.8-1.71,9,9,0,0,1-2.69-3,8.6,8.6,0,0,1-1.05-4.33H581.46a19.1,19.1,0,0,0,2.59,9.5,18.54,18.54,0,0,0,6,6.1,25.27,25.27,0,0,0,8.41,3.29,46.91,46.91,0,0,0,9.66,1,48.67,48.67,0,0,0,9.51-.93,24,24,0,0,0,8.29-3.24,18,18,0,0,0,5.89-6.1,18.24,18.24,0,0,0,2.24-9.4A13.23,13.23,0,0,0,632.56,180.54Zm31-53.58-29.67,78.46h17.36L657.39,188h29.34l5.93,17.47h17.92L681.24,127ZM661.9,175.1l10.22-28.8h.22l9.89,28.8Zm102.63-18.8a23.9,23.9,0,0,0-8-6.7A24.69,24.69,0,0,0,745,147.08a22.26,22.26,0,0,0-9.67,2.08,17.06,17.06,0,0,0-7.25,6.71h-.22v-7.26H713v76.71H728.6V198.4h.21a18.48,18.48,0,0,0,7.32,6.31,22,22,0,0,0,9.72,2.14,23.58,23.58,0,0,0,10.93-2.41,23.13,23.13,0,0,0,7.81-6.49,28,28,0,0,0,4.67-9.33,39.33,39.33,0,0,0,1.54-11,43.47,43.47,0,0,0-1.54-11.6A28.37,28.37,0,0,0,764.53,156.3Zm-10,27.59a16.65,16.65,0,0,1-2.26,5.76,13.23,13.23,0,0,1-17,4,12.26,12.26,0,0,1-4.23-4,17.31,17.31,0,0,1-2.31-5.76,32,32,0,0,1-.71-6.7,35.45,35.45,0,0,1,.65-6.82,17.38,17.38,0,0,1,2.26-5.82,12.79,12.79,0,0,1,4.18-4.13,12.13,12.13,0,0,1,6.43-1.58,11.89,11.89,0,0,1,6.31,1.58,13.43,13.43,0,0,1,4.24,4.18,17.91,17.91,0,0,1,2.35,5.89,31.25,31.25,0,0,1,.72,6.7A34.12,34.12,0,0,1,754.54,183.89ZM831.45,166a28.35,28.35,0,0,0-4.72-9.73,24,24,0,0,0-8-6.7,24.6,24.6,0,0,0-11.54-2.52,22.26,22.26,0,0,0-9.67,2.08,17.18,17.18,0,0,0-7.26,6.7H790v-7.25H775.19v76.71h15.6V198.4H791a18.52,18.52,0,0,0,7.31,6.31,22.12,22.12,0,0,0,9.73,2.14A23.55,23.55,0,0,0,819,204.43a23,23,0,0,0,7.79-6.48,27.79,27.79,0,0,0,4.67-9.34,38.89,38.89,0,0,0,1.54-11A43.07,43.07,0,0,0,831.45,166Zm-14.72,17.86a16.44,16.44,0,0,1-2.25,5.76,12.56,12.56,0,0,1-4.18,4,12.72,12.72,0,0,1-17-4,17.3,17.3,0,0,1-2.3-5.76,31.39,31.39,0,0,1-.72-6.7,34.67,34.67,0,0,1,.67-6.82,17.16,17.16,0,0,1,2.25-5.82,13,13,0,0,1,4.17-4.13,12.16,12.16,0,0,1,6.43-1.58,11.93,11.93,0,0,1,6.32,1.58,13.4,13.4,0,0,1,4.23,4.18,17.71,17.71,0,0,1,2.36,5.89,31.25,31.25,0,0,1,.72,6.7A34.13,34.13,0,0,1,816.73,183.89Z" transform="translate(-99.64 -76.38)" style="fill:#fff;fill-rule:evenodd"/><path d="M191.23,77.88a86.06,86.06,0,0,0-73.7,130.46L102,254.5l47.63-15.25A86,86,0,1,0,191.23,77.88Zm0,158.37a71.94,71.94,0,0,1-39.8-12l-27.8,8.9,9-26.86a72.31,72.31,0,1,1,58.56,29.92Z" transform="translate(-99.64 -76.38)" style="fill:#fff;stroke:#fff;stroke-miterlimit:10;stroke-width:3px;fill-rule:evenodd"/><path d="M171.05,128.33c-1.4-3.36-2.46-3.47-4.62-3.57-.74,0-1.54-.07-2.41-.07-2.78,0-5.65.82-7.38,2.59a23.08,23.08,0,0,0-7.39,17.58c0,10.38,7.56,20.41,8.61,21.82s14.74,23,36,31.83c16.62,6.88,21.55,6.27,25.35,5.44,5.51-1.2,12.44-5.27,14.2-10.19s1.75-9.15,1.23-10-1.94-1.41-4-2.47-12.48-6.15-14.41-6.86A4.09,4.09,0,0,0,211,176a85.24,85.24,0,0,1-5.66,7.49,4.54,4.54,0,0,1-5.12.8,53.9,53.9,0,0,1-17-10.47,63.28,63.28,0,0,1-11.73-14.61c-1.23-2.11-.11-3.36.84-4.51,1.08-1.31,2.08-2.25,3.13-3.48a14.12,14.12,0,0,0,2.35-3.3,4.31,4.31,0,0,0-.3-3.91C177,142.93,172.8,132.56,171.05,128.33Z" transform="translate(-99.64 -76.38)" style="fill:#fff;stroke:#fff;stroke-miterlimit:10;stroke-width:3px;fill-rule:evenodd"/></svg>