<svg xmlns="http://www.w3.org/2000/svg" width="12" height="8" viewBox="0 0 12 8" fill="none">
            <path d="M6.00017 0.666595C6.10984 0.66596 6.21856 0.686981 6.32009 0.728452C6.42162 0.769922 6.51397 0.831026 6.59184 0.908261L11.5918 5.90826C11.7488 6.06518 11.8369 6.27801 11.8369 6.49993C11.8369 6.72184 11.7488 6.93467 11.5918 7.09159C11.4349 7.24851 11.2221 7.33667 11.0002 7.33667C10.7783 7.33667 10.5654 7.24851 10.4085 7.09159L6.00017 2.67493L1.59184 7.08326C1.43242 7.21978 1.22736 7.29112 1.01763 7.28302C0.807897 7.27492 0.608947 7.18798 0.460535 7.03956C0.312123 6.89115 0.225181 6.6922 0.217079 6.48247C0.208979 6.27274 0.280315 6.06768 0.416838 5.90826L5.41684 0.908261C5.57205 0.754307 5.78155 0.667515 6.00017 0.666595Z" fill="#2F3240"></path>
          </svg>