<svg width="82" height="100" viewBox="0 0 82 100" fill="none" xmlns="http://www.w3.org/2000/svg">
<path d="M76.337 39.1101C76.337 30.3818 71.3895 14.2894 56.8133 8.26132" stroke="#00ABE4" stroke-width="3.71253" stroke-linecap="round"/>
<path d="M6.08585 39.11C6.08585 30.3818 11.0333 14.2894 25.6096 8.26132" stroke="#00ABE4" stroke-width="3.71253" stroke-linecap="round"/>
<path fill-rule="evenodd" clip-rule="evenodd" d="M46.0631 6.60211C44.7118 4.72658 43.0533 3.67485 41.4627 3.67485C39.8617 3.67485 38.1551 4.73827 36.7582 6.62106C35.8483 7.84734 35.1814 9.28091 34.8321 10.661C37.2323 10.0954 39.4869 9.89016 41.4037 9.94133C43.306 9.88945 45.5419 10.0903 47.923 10.6456C47.5865 9.25855 46.9434 7.8239 46.0631 6.60211ZM34.0658 4.62336C32.5317 6.69088 31.4751 9.29033 31.2484 11.754C28.3114 12.8607 25.3025 14.5363 22.5353 16.9497C16.176 22.496 11.2744 31.7796 11.2744 46.4865L11.2744 46.5247L11.2762 46.563C11.4573 50.5291 11.2218 56.8754 9.93111 62.9307C8.61992 69.0825 6.3129 74.4816 2.69538 77.0878L2.66651 77.1086L2.63854 77.1306C1.6421 77.9148 1.211 79.1803 1.11045 80.3183C1.00488 81.5131 1.22713 82.8576 1.83941 84.1206C3.1143 86.7504 5.9718 88.8409 10.6039 88.8409H29.3075C30.1285 94.7703 35.2175 99.3359 41.3729 99.3359C47.5283 99.3359 52.6174 94.7702 53.4382 88.8406L72.2155 88.8406C76.8476 88.8406 79.7051 86.7501 80.98 84.1202C81.5923 82.8572 81.8146 81.5128 81.709 80.318C81.6084 79.1799 81.1773 77.9145 80.1809 77.1303L80.1529 77.1082L80.1241 77.0874C76.5065 74.4813 74.1995 69.0822 72.8883 62.9304C71.5977 56.8751 71.3622 50.5288 71.5433 46.5626L71.545 46.5244V46.4862C71.545 45.2006 71.5076 43.9564 71.435 42.7526C70.3862 43.1414 69.2745 43.4006 68.1194 43.5107C68.167 44.461 68.1918 45.44 68.1924 46.4485C68.0043 50.6424 68.252 57.2606 69.6094 63.6293C70.9453 69.8971 73.4481 76.3739 78.1104 79.7685C78.1363 79.8 78.3178 80.0289 78.3694 80.6131C78.4211 81.1984 78.3132 81.936 77.9632 82.6578C77.3138 83.9975 75.719 85.488 72.2155 85.488L41.3717 85.488V85.4883H10.6039C7.10041 85.4883 5.50568 83.9978 4.8562 82.6581C4.50628 81.9363 4.3983 81.1987 4.45002 80.6134C4.50163 80.0293 4.68314 79.8004 4.70908 79.7688C9.3713 76.3742 11.8741 69.8974 13.21 63.6296C14.5675 57.2609 14.8152 50.6428 14.627 46.4488C14.6353 32.5697 19.2294 24.2815 24.7389 19.4763C30.3101 14.6174 37.0023 13.1573 41.3951 13.2951L41.4097 12.8301L41.4243 13.2947C45.8171 13.1569 52.5094 14.6171 58.0805 19.476C58.2851 19.6544 58.4883 19.8376 58.6902 20.0257C59.5975 19.3098 60.6011 18.7106 61.6785 18.2506C61.2227 17.7957 60.7575 17.3622 60.2842 16.9494C57.4932 14.5153 54.4565 12.8318 51.4955 11.7253C51.2737 9.28665 50.2701 6.70601 48.7832 4.64231C47.1058 2.31403 44.5628 0.322266 41.4627 0.322266C38.3731 0.322266 35.7879 2.30233 34.0658 4.62336ZM50.0406 88.8406H41.4477L41.4477 88.8409L32.7052 88.8409C33.4921 92.9102 37.0736 95.9833 41.3729 95.9833C45.6722 95.9833 49.2538 92.9101 50.0406 88.8406Z" fill="#00ABE4"/>
<circle cx="66.6837" cy="30.3839" r="10.0578" fill="#E0162E"/>
<path d="M67.7993 34.2445H66.1806V29.8128C66.1806 29.6906 66.1824 29.5404 66.1859 29.3623C66.1894 29.1807 66.1946 28.9956 66.2016 28.807C66.2086 28.615 66.2156 28.4421 66.2226 28.2884C66.1841 28.3338 66.1056 28.4124 65.9868 28.5242C65.8716 28.6324 65.7633 28.7302 65.662 28.8175L64.782 29.5247L64.0015 28.5503L66.4688 26.5859H67.7993V34.2445Z" fill="white"/>
</svg>
