<svg width="16" height="16" viewBox="0 0 16 16" fill="none" xmlns="http://www.w3.org/2000/svg">
<path opacity="0.5" d="M3.5 3.5V1.25C3.5 1.05109 3.57902 0.860322 3.71967 0.71967C3.86032 0.579018 4.05109 0.5 4.25 0.5H14.75C14.9489 0.5 15.1397 0.579018 15.2803 0.71967C15.421 0.860322 15.5 1.05109 15.5 1.25V11.75C15.5 11.9489 15.421 12.1397 15.2803 12.2803C15.1397 12.421 14.9489 12.5 14.75 12.5H12.5V14.75C12.5 15.164 12.1625 15.5 11.7447 15.5H1.25525C1.15635 15.5006 1.0583 15.4816 0.966742 15.4442C0.875185 15.4068 0.791925 15.3517 0.721744 15.282C0.651563 15.2123 0.595845 15.1294 0.557791 15.0381C0.519737 14.9468 0.500097 14.8489 0.5 14.75L0.50225 4.25C0.50225 3.836 0.83975 3.5 1.2575 3.5H3.5ZM2.00225 5L2 14H11V5H2.00225ZM5 3.5H12.5V11H14V2H5V3.5Z" fill="white"/>
</svg>
