<svg width="15" height="15" viewBox="0 0 15 15" fill="none" xmlns="http://www.w3.org/2000/svg">
<path id="Vector" d="M14.4263 2.09471L14.4262 2.09468L14.4231 2.09787L9.18288 7.35627L9.00708 7.53268L9.18282 7.70915L14.418 12.9661C14.6033 13.167 14.7042 13.4322 14.6994 13.7063C14.6945 13.9818 14.5833 14.2445 14.3893 14.4391C14.1953 14.6337 13.9338 14.745 13.6599 14.7498C13.3874 14.7547 13.1234 14.6537 12.9231 14.468L7.68449 9.21114L7.5075 9.03354L7.33041 9.21106L2.08823 14.4662C1.88794 14.652 1.62398 14.7529 1.35143 14.7481C1.0775 14.7432 0.815988 14.6319 0.622028 14.4374C0.428044 14.2428 0.316791 13.9801 0.311946 13.7046C0.307125 13.4305 0.408016 13.1653 0.593245 12.9644L5.8319 7.70924L6.00776 7.53283L5.83199 7.35633L0.593546 2.09618L0.593659 2.09606L0.58712 2.08995C0.483112 1.99273 0.399644 1.87545 0.341736 1.74507C0.283827 1.6147 0.252676 1.47393 0.250165 1.33117C0.247654 1.18841 0.273835 1.04662 0.327126 0.914266C0.380417 0.781918 0.459714 0.661746 0.560247 0.560897C0.660779 0.460049 0.780484 0.380591 0.912201 0.327221C1.04392 0.273852 1.18497 0.247652 1.32696 0.250165C1.46895 0.252678 1.609 0.283854 1.73876 0.341854C1.86853 0.399855 1.98537 0.483506 2.0823 0.587856L2.08219 0.587962L2.08842 0.594211L7.33035 5.85261L7.50738 6.03019L7.68443 5.85264L12.9281 0.594241L12.9281 0.594266L12.9311 0.591194C13.0288 0.489804 13.1456 0.408995 13.2747 0.353441C13.4038 0.297888 13.5426 0.268692 13.683 0.267535C13.8234 0.266378 13.9627 0.293282 14.0927 0.346698C14.2226 0.400116 14.3408 0.478987 14.4401 0.578749C14.5395 0.678511 14.6181 0.797168 14.6713 0.927819C14.7245 1.05847 14.7512 1.19847 14.75 1.33965C14.7487 1.48082 14.7194 1.62031 14.6638 1.74995C14.6082 1.8796 14.5274 1.99679 14.4263 2.09471Z" fill="#BBBBBB" stroke="white" stroke-width="0.5"/>
</svg>
