<svg width="600" height="74" viewBox="0 0 600 74" fill="none" xmlns="http://www.w3.org/2000/svg">
<path d="M599.5 0.700012L599.8 0.100006H547.2C531.7 0.100006 518.5 3.30001 507.6 9.60001C496.7 16 488.9 24.8 484.1 36.3C481.1 43.6 480.2 50.2 481.5 56.2C483 62.5 486.9 66.9 493.1 69.7C498.8 72.2 508.3 73.4 521.7 73.4H569.2L573.9 61.8H547.2C534.3 61.8 525.7 60.1 521.4 56.8C516.7 53.2 517.2 44.9 520.9 36.1C527.3 20.9 540.6 11.4 559.1 11.4H579.8L575 22.8H590.8L600 0.800003H599.5V0.700012ZM415.3 44L447.3 12.9L453.9 44H415.3ZM143.2 44.1L174.4 14.3L180 44.1H143.2ZM444.6 0L425.1 0.100006L350.1 70.3L379.4 0.200012H347.3L308.5 30.6L288.5 47H287.6L297 23.1L285.5 0.100006H253.2L223.9 70.3L206.9 0.100006H171.5L93.4 73.3H112.9L132.9 54.2H182.1L186 73.3H238.3L257.2 28C258.2 25.7 259.1 23.1 260 20.2C260.1 22.6 260.7 25.1 261.9 27.7L278.5 65.5H281.3L328.9 27.9C330.7 26.5 333.4 23.9 337 20.2C335.2 23.6 333.9 26.2 333.1 28L314.2 73.3H348.7H385.1L404.8 54.1H455.9L460 73.3H478L460.5 0H444.6ZM102.1 56.1C108.4 50.1 113 43.5 116.1 36.2C120.9 24.8 120.5 15.9 114.9 9.5C109.3 3.2 98.7 0 83.2 0H30.7L25.9 11.5H62.1C80.6 11.5 85.9 20.7 79.5 35.9C75.8 44.7 72.6 52.8 64.9 56.4C57.9 59.7 50.6 60.7 37.7 60.7H21L33.5 31.1H17.7L0 73.3H47.6C61 73.3 71.5 72.1 79.3 69.6C87.8 66.8 95.4 62.4 102.1 56.1Z" fill="white"/>
</svg>
