<svg width="20" height="26" viewBox="0 0 20 26" fill="none" xmlns="http://www.w3.org/2000/svg">
<path fill-rule="evenodd" clip-rule="evenodd" d="M10.7042 25.2913C15.0533 20.8839 20 15.2376 20 9.99998C20 4.47714 15.5228 0 10 0C4.47715 0 0 4.47714 0 9.99998C0 15.2073 5.33414 21.2631 9.29648 25.2909C9.68379 25.6846 10.3163 25.6844 10.7042 25.2913ZM10 16.1209C13.5145 16.1209 16.3636 13.2718 16.3636 9.75732C16.3636 6.24279 13.5145 3.39369 10 3.39369C6.48546 3.39369 3.63636 6.24279 3.63636 9.75732C3.63636 13.2718 6.48546 16.1209 10 16.1209Z" fill="#00ABE4"/>
</svg>
