<svg width="20" height="20" viewBox="0 0 20 20" fill="none" xmlns="http://www.w3.org/2000/svg">
<path d="M19.3757 15.6729C18.6123 14.9036 16.7632 13.781 15.866 13.3286C14.6977 12.7401 14.6016 12.6921 13.6833 13.3743C13.0708 13.8296 12.6636 14.2363 11.9467 14.0834C11.2299 13.9305 9.67215 13.0685 8.30817 11.7089C6.94419 10.3492 6.03215 8.74629 5.87878 8.03185C5.72541 7.3174 6.13889 6.91499 6.58986 6.30103C7.22545 5.43563 7.17737 5.29139 6.63409 4.1231C6.21052 3.21442 5.05521 1.38264 4.28307 0.623011C3.45709 -0.192875 3.45709 -0.0486405 2.92487 0.172519C2.49157 0.354825 2.07588 0.576429 1.68301 0.834554C0.913759 1.34562 0.486826 1.77015 0.188261 2.40815C-0.110304 3.04615 -0.244442 4.54186 1.29742 7.34289C2.83929 10.1439 3.92104 11.5762 6.16004 13.8089C8.39904 16.0417 10.1207 17.2422 12.6376 18.6537C15.7511 20.3975 16.9454 20.0576 17.5853 19.7595C18.2252 19.4615 18.6517 19.0384 19.1637 18.2691C19.4225 17.8769 19.6446 17.4617 19.8272 17.0287C20.0488 16.4984 20.1931 16.4984 19.3757 15.6729Z" fill="#00ABE4"/>
</svg>
