<?xml version="1.0" encoding="utf-8"?>
<!-- Generator: Adobe Illustrator 24.0.3, SVG Export Plug-In . SVG Version: 6.00 Build 0)  -->
<svg version="1.1" id="Layer_1" xmlns="http://www.w3.org/2000/svg" xmlns:xlink="http://www.w3.org/1999/xlink" x="0px" y="0px"
	 viewBox="0 0 512 512" style="enable-background:new 0 0 512 512;" xml:space="preserve">
<style type="text/css">
	.st0{fill:#00ACE3;}
</style>
<g>
	<path class="st0" d="M496.4,229.6c-0.7,0-1.3-0.1-2-0.2c-0.6-0.1-1.3-0.3-1.9-0.6c-0.6-0.2-1.2-0.6-1.7-0.9
		c-0.6-0.4-1.1-0.8-1.5-1.2c-0.5-0.5-0.9-1-1.2-1.5c-0.4-0.6-0.7-1.1-0.9-1.7c-0.2-0.6-0.4-1.2-0.6-1.9c-0.1-0.7-0.2-1.3-0.2-2
		s0.1-1.3,0.2-2c0.1-0.6,0.3-1.3,0.6-1.9c0.2-0.6,0.6-1.2,0.9-1.7c0.4-0.6,0.8-1.1,1.2-1.5c0.5-0.5,1-0.9,1.5-1.2
		c0.5-0.4,1.1-0.7,1.7-0.9s1.2-0.4,1.9-0.6c1.3-0.3,2.6-0.3,3.9,0c0.6,0.1,1.3,0.3,1.9,0.6c0.6,0.2,1.2,0.6,1.7,0.9
		c0.6,0.4,1.1,0.8,1.5,1.2c0.5,0.5,0.9,1,1.2,1.5c0.4,0.5,0.7,1.1,0.9,1.7c0.2,0.6,0.4,1.2,0.6,1.9c0.1,0.6,0.2,1.3,0.2,2
		s-0.1,1.3-0.2,2c-0.1,0.6-0.3,1.3-0.6,1.9c-0.2,0.6-0.6,1.2-0.9,1.7c-0.4,0.5-0.8,1.1-1.2,1.5c-0.5,0.5-1,0.9-1.5,1.2
		c-0.5,0.4-1.1,0.7-1.7,0.9s-1.2,0.4-1.9,0.6C497.7,229.5,497.1,229.6,496.4,229.6z"/>
	<path class="st0" d="M350.7,244.6h-78.2c-5.5,0-10-4.5-10-10v-50.7c0-26.4,21.5-47.9,47.9-47.9h2.3c26.4,0,47.9,21.5,47.9,47.9
		v50.7C360.7,240.2,356.2,244.6,350.7,244.6z M282.5,224.6h58.2v-40.7c0-15.4-12.5-27.9-27.9-27.9h-2.3c-15.4,0-27.9,12.5-27.9,27.9
		L282.5,224.6L282.5,224.6z"/>
	<path class="st0" d="M496.4,253.8c-5.5,0-10,4.5-10,10v150.4H103.9V11.9c0-5.5-4.5-10-10-10H17c-5.5,0-10,4.5-10,10V501
		c0,5.5,4.5,10,10,10h479.4c5.5,0,10-4.5,10-10V263.8C506.4,258.3,501.9,253.8,496.4,253.8z M27,21.9h56.9v65.3h-13
		c-5.5,0-10,4.5-10,10s4.5,10,10,10h12.9v67.3H70.9c-5.5,0-10,4.5-10,10s4.5,10,10,10h12.9v67.3H70.9c-5.5,0-10,4.5-10,10
		s4.5,10,10,10h12.9v67.3H70.9c-5.5,0-10,4.5-10,10s4.5,10,10,10h12.9v67.3H70.9c-5.5,0-10,4.5-10,10s4.5,10,10,10h12.9V491H27V21.9
		z M486.4,491H103.9v-56.8H149v12.9c0,5.5,4.5,10,10,10s10-4.5,10-10v-12.9h67.4v12.9c0,5.5,4.5,10,10,10s10-4.5,10-10v-12.9h67.4
		v12.9c0,5.5,4.5,10,10,10s10-4.5,10-10v-12.9h67.4v12.9c0,5.5,4.5,10,10,10s10-4.5,10-10v-12.9h55.2V491z"/>
	<path class="st0" d="M158,205.6c3.7,3.8,9.6,4,13.6,0.6l7.2-6.1v179.1c0,5.5,4.5,10,10,10h245.5c5.5,0,10-4.5,10-10V200.1l7.2,6.1
		c1.9,1.6,4.2,2.4,6.5,2.4c2.6,0,5.2-1,7.1-3l31.8-32.5c1.9-2,2.9-4.6,2.8-7.4s-1.3-5.3-3.4-7.1L318.2,1.5c-3.8-3.3-9.4-3.3-13.2,0
		L126.7,158.6c-2.1,1.8-3.3,4.4-3.4,7.1s0.9,5.4,2.8,7.4L158,205.6z M282.5,369.2v-68.7h58.2v68.7H282.5z M424.4,369.2h-63.7v-78.7
		c0-5.5-4.5-10-10-10h-78.2c-5.5,0-10,4.5-10,10v78.7h-63.7V183l112.8-96.1L424.4,183V369.2z M311.6,22.3l163.8,144.3l-17.9,18.3
		L318.1,66.2c-3.7-3.2-9.2-3.2-13,0L165.7,184.9l-17.9-18.3L311.6,22.3z"/>
</g>
</svg>
