<svg width="31" height="30" viewBox="0 0 31 30" fill="none" xmlns="http://www.w3.org/2000/svg">
<path d="M15.2744 0C23.6282 0 30.4003 6.71571 30.4003 15C30.4003 23.2843 23.6282 30 15.2744 30C6.92054 30 0.148438 23.2843 0.148438 15C0.148438 6.71571 6.92054 0 15.2744 0ZM15.2744 1.70298C7.86915 1.70298 1.86577 7.65637 1.86577 14.9999C1.86577 22.3435 7.86915 28.2964 15.2744 28.2964C22.6796 28.2964 28.6825 22.3441 28.6825 14.9999C28.6825 7.65584 22.6802 1.70298 15.2744 1.70298Z" fill="#00ABE4"/>
<path fill-rule="evenodd" clip-rule="evenodd" d="M14.4437 13.4297L14.8588 7.80098C14.8871 7.42201 15.1732 7.10938 15.5594 7.10938C15.9462 7.10938 16.2701 7.42599 16.2608 7.80098L16.1074 13.4297C16.6759 13.7283 17.0627 14.321 17.0627 14.9986C17.0627 15.1794 17.0336 15.3533 16.984 15.5203L21.786 20.5371C22.0502 20.8069 22.0574 21.2467 21.786 21.5165C21.51 21.7902 21.0626 21.7862 20.7944 21.5204L15.8243 16.6875C15.6489 16.7444 15.4666 16.7725 15.2731 16.7725C14.2855 16.7725 13.4883 15.9779 13.4883 14.9985C13.4883 14.321 13.8744 13.7283 14.4436 13.4297L14.4437 13.4297Z" fill="#00ABE4"/>
</svg>
