<?xml version="1.0" encoding="UTF-8"?> <!-- Generator: Adobe Illustrator 17.0.0, SVG Export Plug-In . SVG Version: 6.00 Build 0) --> <svg xmlns="http://www.w3.org/2000/svg" xmlns:xlink="http://www.w3.org/1999/xlink" id="Слой_1" x="0px" y="0px" width="3272.998px" height="120.315px" viewBox="0 0 3272.998 120.315" xml:space="preserve"> <polygon fill="#00abe4" points="3064.509,120.315 2962.548,18.378 2860.397,120.308 2758.466,18.383 2656.509,120.315 2554.548,18.378 2452.397,120.308 2350.466,18.383 2248.509,120.315 2146.548,18.378 2044.397,120.308 1942.466,18.383 1840.509,120.315 1738.548,18.378 1636.397,120.308 1534.465,18.383 1432.509,120.315 1330.548,18.378 1228.397,120.308 1126.465,18.383 1024.509,120.315 922.548,18.378 820.397,120.308 718.465,18.383 616.509,120.315 514.548,18.378 412.397,120.308 310.465,18.383 208.509,120.315 106.552,18.383 9.191,115.721 0,106.527 106.552,0 208.509,101.933 310.466,0 412.407,101.933 514.557,0.004 616.509,101.933 718.466,0 820.407,101.933 922.557,0.004 1024.509,101.933 1126.466,0 1228.407,101.933 1330.557,0.004 1432.509,101.933 1534.466,0 1636.407,101.933 1738.558,0.004 1840.509,101.933 1942.466,0 2044.407,101.933 2146.558,0.004 2248.509,101.933 2350.466,0 2452.407,101.933 2554.558,0.004 2656.509,101.933 2758.466,0 2860.407,101.933 2962.558,0.004 3064.509,101.933 3166.466,0 3272.998,106.523 3263.807,115.717 3166.466,18.383 "></polygon> </svg> 